<svg width="243" height="225" viewBox="0 0 243 225" fill="none" xmlns="https://www.w3.org/2000/svg">
<g clip-path="url(#clip0_396_893)">
<path d="M122.073 26.646C102.386 19.9793 73.2201 16.896 57.9481 18.3127C48.9481 19.146 10.1975 24.146 9.5731 49.9793C9.0106 73.3127 30.9481 83.3127 46.6981 86.646C88.3513 95.4625 115.441 101.263 154.31 74.196C159.62 70.5043 165.886 64.4793 165.886 54.671C165.886 46.3377 156.886 33.0043 145.636 26.3377C136.338 20.8293 115.441 12.5293 91.1244 10.8126C67.4994 9.14597 51.1868 8.68764 26.4368 23.3127C14.6974 30.246 11.8119 44.146 12.3744 54.9793C13.9775 85.8127 71.9994 99.4208 100.49 96.7042C118.411 95.0375 159.8 85.2877 160.874 59.146C161.437 44.9043 146.199 31.3377 134.949 26.3377C122.011 20.5793 108.562 16.646 89.9994 15.8126M165.937 51.6458C178.087 40.7374 194.512 43.9541 206.055 56.2208C217.597 68.4874 224.657 88.3791 227.852 108.888C229.438 119.088 230.136 130.054 227.587 139.813C225.962 146.021 220.944 152.029 217.395 147.938C216.18 146.529 215.561 144.279 215.145 142.104C213.724 134.307 214.274 126.009 216.692 118.771C217.716 115.737 219.279 112.721 221.524 112.104C225.146 111.079 228.015 116.596 229.399 121.654C237.769 152.071 227.818 186.713 230.377 219.346M222.294 208.313C224.758 213.114 227.673 217.369 230.951 220.946L235.507 208.313" stroke="#644E9B" stroke-width="4.44444" stroke-linecap="round"/>
</g>
<defs>
<clipPath id="clip0_396_893">
<rect width="243" height="225" fill="white"/>
</clipPath>
</defs>
</svg>
